<svg preserveAspectRatio="none" width="100%" height="100%" overflow="visible" style="display: block;" viewBox="0 0 273 91" fill="none" xmlns="http://www.w3.org/2000/svg">
<g id="LOGO" clip-path="url(#clip0_0_8)">
<path id="Vector" d="M45.1894 0C52.2222 0 58.7245 1.1051 64.6826 3.32847C70.6407 5.55183 75.7963 8.6698 80.1357 12.6824C84.4751 16.695 87.8622 21.51 90.3108 27.1408C92.7593 32.7584 93.97 38.9812 93.97 45.7829C93.97 49.6507 93.5075 53.466 92.5825 57.2154C91.6575 60.9649 90.2972 64.5038 88.5016 67.8455C86.706 71.1871 84.5159 74.2787 81.9041 77.1073C79.2923 79.9358 76.3132 82.3828 72.9669 84.4352C69.6205 86.4875 65.9205 88.1057 61.8804 89.2634C57.8403 90.4211 53.4737 91 48.7942 91C41.7614 91 35.2592 89.9081 29.301 87.7373C23.3429 85.5534 18.1873 82.4749 13.8479 78.4755C9.50855 74.4761 6.12138 69.6873 3.67283 64.0828C1.22428 58.4784 0 52.2556 0 45.4145C0 41.5466 0.462504 37.7314 1.38751 33.9819C2.31252 30.2325 3.67283 26.6672 5.46843 23.2861C7.26404 19.905 9.45413 16.8002 12.0387 13.9585C14.6233 11.13 17.6024 8.6698 20.9487 6.59115C24.2951 4.51251 28.0087 2.89432 32.076 1.73659C36.1434 0.578864 40.5099 0 45.1894 0ZM48.7806 85.5008C53.4601 85.5008 57.7314 84.6851 61.6083 83.0538C65.4852 81.4224 68.8179 79.0675 71.6202 75.9627C74.4224 72.871 76.5989 69.0821 78.1632 64.6222C79.7276 60.1624 80.503 55.0973 80.503 49.4402C80.503 43.1648 79.7548 37.3499 78.2585 31.9954C76.7621 26.6409 74.5448 21.9968 71.593 18.0632C68.6411 14.1295 64.9683 11.051 60.5609 8.84083C56.1535 6.61746 51.0251 5.51236 45.1758 5.51236C40.4963 5.51236 36.225 6.31488 32.3481 7.93306C28.4712 9.5381 25.1385 11.8799 22.3362 14.9321C19.534 17.9842 17.3575 21.7337 15.7932 26.1804C14.2288 30.6272 13.4534 35.6791 13.4534 41.3361C13.4534 47.5721 14.188 53.387 15.6707 58.781C17.1399 64.1749 19.3572 68.8585 22.309 72.8053C25.2609 76.7521 28.9473 79.87 33.3683 82.1197C37.7893 84.3825 42.9313 85.514 48.7942 85.514L48.7806 85.5008Z" fill="var(--fill-0, #D9D9D9)"/>
<path id="Vector_2" d="M170.882 47.1774C169.195 47.1379 167.086 47.1116 164.556 47.0853C162.026 47.059 159.278 47.0327 156.313 46.9932C153.347 46.9537 150.246 46.9274 147.022 46.9011C143.798 46.8748 140.656 46.8616 137.581 46.8353C134.507 46.809 131.582 46.8353 128.794 46.8616C126.019 46.9011 123.584 46.9669 121.53 47.0458V65.2011C121.53 68.6611 121.584 71.687 121.693 74.2787C121.802 76.8705 121.924 79.0938 122.074 80.9751C122.224 82.8564 122.414 84.422 122.645 85.685C122.877 86.948 123.121 88.0136 123.366 88.8687V89.1055H108.199V88.8687C108.457 88.0136 108.689 86.948 108.92 85.685C109.151 84.422 109.355 82.8564 109.518 80.9751C109.682 79.0938 109.818 76.8705 109.899 74.2787C109.981 71.687 110.022 68.6611 110.022 65.2011V25.4174C110.022 21.9574 109.981 18.9315 109.899 16.3397C109.818 13.748 109.682 11.5115 109.518 9.61703C109.355 7.72257 109.151 6.14385 108.92 4.88087C108.689 3.6179 108.444 2.55226 108.199 1.69712V1.44716H123.366V1.69712C123.108 2.55226 122.877 3.6179 122.645 4.88087C122.414 6.14385 122.224 7.72257 122.074 9.61703C121.924 11.5115 121.802 13.748 121.693 16.3397C121.584 18.9315 121.53 21.9574 121.53 25.4174V41.0599C123.72 41.1388 126.209 41.1914 128.984 41.2177C131.759 41.244 134.67 41.244 137.704 41.2177C140.737 41.1914 143.825 41.1651 146.968 41.1256C150.11 41.0862 153.143 41.0335 156.068 40.9678C158.993 40.902 161.727 40.8362 164.284 40.7573C166.828 40.6783 169.032 40.5994 170.895 40.5073V25.4174C170.895 21.9574 170.841 18.9315 170.732 16.3397C170.623 13.748 170.501 11.5115 170.351 9.61703C170.202 7.72257 170.011 6.14385 169.78 4.88087C169.549 3.6179 169.304 2.55226 169.059 1.69712V1.44716H184.226V1.69712C183.968 2.55226 183.723 3.6179 183.492 4.88087C183.261 6.14385 183.056 7.72257 182.893 9.61703C182.73 11.5115 182.594 13.748 182.512 16.3397C182.431 18.9315 182.39 21.9574 182.39 25.4174V65.2011C182.39 68.6611 182.431 71.687 182.512 74.2787C182.594 76.8705 182.73 79.0938 182.893 80.9751C183.07 82.8564 183.261 84.422 183.492 85.685C183.723 86.948 183.968 88.0136 184.226 88.8687V89.1055H169.059V88.8687C169.304 88.0136 169.549 86.948 169.78 85.685C170.011 84.422 170.202 82.8564 170.351 80.9751C170.501 79.0938 170.623 76.8705 170.732 74.2787C170.841 71.687 170.895 68.6611 170.895 65.2011V47.1774H170.882Z" fill="var(--fill-0, #D9D9D9)"/>
<path id="Vector_3" d="M215.622 65.2143C215.622 68.6743 215.677 71.7002 215.786 74.2919C215.894 76.8836 216.017 79.107 216.166 80.9883C216.316 82.8696 216.506 84.4352 216.738 85.6981C216.969 86.9611 217.214 88.0267 217.459 88.8819V89.1187H202.291V88.8819C202.536 88.0267 202.781 86.9611 203.012 85.6981C203.243 84.4352 203.434 82.8696 203.584 80.9883C203.733 79.107 203.856 76.8968 203.964 74.3314C204.073 71.7659 204.128 68.7269 204.128 65.2274V25.4437C204.128 21.9837 204.073 18.9578 203.964 16.3661C203.856 13.7743 203.733 11.551 203.584 9.66965C203.434 7.8015 203.243 6.22278 203.012 4.9335C202.781 3.64421 202.536 2.57857 202.291 1.72344V1.47347L204.944 1.72344C205.746 1.80237 206.644 1.85499 207.624 1.88131C208.617 1.90762 209.637 1.90762 210.684 1.90762C212.33 1.90762 214.548 1.71028 217.35 1.32876C220.152 0.947231 223.716 0.749892 228.055 0.749892C232.096 0.749892 235.836 1.27613 239.278 2.34177C242.706 3.4074 245.699 4.94665 248.215 6.98583C250.745 9.02501 252.718 11.5247 254.119 14.4716C255.534 17.4317 256.241 20.7733 256.241 24.5228C256.241 27.4566 255.847 30.1798 255.071 32.6795C254.296 35.1791 253.194 37.4551 251.779 39.4943C250.364 41.5335 248.664 43.3358 246.692 44.9014C244.719 46.467 242.502 47.7826 240.053 48.8482L262.24 78.9754C263.328 80.4884 264.362 81.7908 265.301 82.8828C266.253 83.9879 267.151 84.9351 268.021 85.7245C268.892 86.527 269.722 87.1716 270.524 87.6847C271.327 88.1978 272.143 88.5925 272.986 88.8819V89.1187H254.717C254.595 88.3425 254.187 87.3163 253.48 86.027C252.786 84.7378 251.97 83.4748 251.045 82.2118L228.668 51.7162C227.702 51.7951 226.722 51.8741 225.757 51.9267C224.791 51.9925 223.798 52.0188 222.791 52.0188C221.608 52.0188 220.424 51.9793 219.227 51.9004C218.03 51.8215 216.819 51.6767 215.595 51.4794V65.2274L215.622 65.2143ZM215.622 46.6906C216.765 46.9406 217.921 47.1116 219.105 47.2169C220.288 47.3221 221.417 47.3747 222.519 47.3747C225.675 47.3747 228.559 46.9143 231.184 45.9934C233.796 45.0724 236.013 43.6779 237.85 41.8097C239.686 39.9416 241.101 37.5998 242.121 34.8108C243.128 32.0217 243.631 28.7458 243.631 24.9964C243.631 21.9442 243.277 19.1683 242.556 16.6818C241.835 14.1953 240.774 12.0904 239.36 10.3538C237.945 8.61718 236.163 7.27526 234.014 6.31488C231.864 5.35449 229.361 4.88087 226.491 4.88087C223.621 4.88087 221.268 5.02559 219.54 5.31502C217.812 5.60445 216.506 5.90704 215.622 6.23594V46.6906Z" fill="var(--fill-0, #D9D9D9)"/>
</g>
<defs>
<clipPath id="clip0_0_8">
<rect width="273" height="91" fill="white"/>
</clipPath>
</defs>
</svg>
