<svg preserveAspectRatio="none" width="100%" height="100%" overflow="visible" style="display: block;" viewBox="0 0 93 31" fill="none" xmlns="http://www.w3.org/2000/svg">
<g id="LOGO" clip-path="url(#clip0_0_4)">
<path id="Vector" d="M15.3942 0C17.79 0 20.005 0.376464 22.0347 1.13387C24.0644 1.89128 25.8207 2.95345 27.299 4.32037C28.7772 5.68729 29.9311 7.3276 30.7652 9.24577C31.5993 11.1595 32.0118 13.2793 32.0118 15.5964C32.0118 16.914 31.8542 18.2137 31.5391 19.491C31.224 20.7683 30.7606 21.9738 30.1489 23.1122C29.5372 24.2505 28.7911 25.3037 27.9014 26.2673C27.0117 27.2309 25.9968 28.0645 24.8568 28.7636C23.7169 29.4628 22.4564 30.014 21.0801 30.4084C19.7038 30.8028 18.2163 31 16.6222 31C14.2264 31 12.0114 30.628 9.98166 29.8885C7.95197 29.1446 6.19567 28.0959 4.71742 26.7334C3.23917 25.371 2.08531 23.7396 1.25118 21.8304C0.417061 19.9212 0 17.8014 0 15.4709C0 14.1532 0.157556 12.8535 0.472669 11.5763C0.787782 10.299 1.25118 9.08443 1.86287 7.93263C2.47456 6.78083 3.22064 5.72315 4.1011 4.7551C4.98156 3.79153 5.99641 2.95345 7.13638 2.24534C8.27635 1.53723 9.54143 0.985977 10.927 0.591586C12.3126 0.197195 13.8001 0 15.3942 0ZM16.6176 29.1266C18.2117 29.1266 19.6667 28.8488 20.9874 28.293C22.3081 27.7373 23.4435 26.9351 24.3981 25.8774C25.3527 24.8242 26.0941 23.5335 26.627 22.0142C27.1599 20.4949 27.4241 18.7694 27.4241 16.8423C27.4241 14.7045 27.1692 12.7236 26.6595 10.8995C26.1497 9.07547 25.3944 7.49342 24.3888 6.15339C23.3832 4.81336 22.132 3.76464 20.6306 3.01171C19.1292 2.2543 17.3822 1.87784 15.3896 1.87784C13.7955 1.87784 12.3404 2.15122 11.0197 2.70247C9.69899 3.24924 8.56366 4.04699 7.60905 5.08674C6.65444 6.1265 5.913 7.40379 5.38009 8.91861C4.84718 10.4334 4.58304 12.1544 4.58304 14.0815C4.58304 16.2059 4.83328 18.1868 5.33838 20.0243C5.83886 21.8618 6.5942 23.4573 7.59978 24.8018C8.60536 26.1463 9.86118 27.2085 11.3672 27.9748C12.8733 28.7457 14.6249 29.1311 16.6222 29.1311L16.6176 29.1266Z" fill="var(--fill-0, white)"/>
<path id="Vector_2" d="M58.2125 16.0714C57.6378 16.058 56.9196 16.049 56.0577 16.04C55.1957 16.0311 54.2597 16.0221 53.2494 16.0087C52.2392 15.9952 51.1827 15.9863 50.0844 15.9773C48.9861 15.9683 47.9157 15.9639 46.8684 15.9549C45.8211 15.9459 44.8248 15.9549 43.8748 15.9639C42.9295 15.9773 42.1 15.9997 41.4003 16.0266V22.2114C41.4003 23.3901 41.4188 24.4208 41.4559 25.3037C41.4929 26.1866 41.5347 26.9441 41.5856 27.5849C41.6366 28.2258 41.7015 28.7591 41.7803 29.1894C41.859 29.6196 41.9424 29.9827 42.0259 30.274V30.3546H36.8589V30.274C36.947 29.9827 37.0258 29.6196 37.1045 29.1894C37.1833 28.7591 37.2528 28.2258 37.3084 27.5849C37.364 26.9441 37.4104 26.1866 37.4382 25.3037C37.466 24.4208 37.4799 23.3901 37.4799 22.2114V8.65867C37.4799 7.47998 37.466 6.44918 37.4382 5.56629C37.4104 4.68339 37.364 3.9215 37.3084 3.27613C37.2528 2.63076 37.1833 2.09296 37.1045 1.66272C37.0258 1.23247 36.9423 0.869452 36.8589 0.578141V0.492988H42.0259V0.578141C41.9378 0.869452 41.859 1.23247 41.7803 1.66272C41.7015 2.09296 41.6366 2.63076 41.5856 3.27613C41.5347 3.9215 41.4929 4.68339 41.4559 5.56629C41.4188 6.44918 41.4003 7.47998 41.4003 8.65867V13.9874C42.1463 14.0143 42.9944 14.0322 43.9397 14.0412C44.885 14.0502 45.8767 14.0502 46.9101 14.0412C47.9435 14.0322 48.9954 14.0233 50.0659 14.0098C51.1363 13.9964 52.1697 13.9785 53.166 13.9561C54.1623 13.9336 55.0938 13.9112 55.965 13.8843C56.8315 13.8575 57.5822 13.8306 58.2171 13.7992V8.65867C58.2171 7.47998 58.1986 6.44918 58.1615 5.56629C58.1244 4.68339 58.0827 3.9215 58.0317 3.27613C57.9808 2.63076 57.9159 2.09296 57.8371 1.66272C57.7583 1.23247 57.6749 0.869452 57.5915 0.578141V0.492988H62.7584V0.578141C62.6704 0.869452 62.587 1.23247 62.5082 1.66272C62.4294 2.09296 62.3599 2.63076 62.3043 3.27613C62.2487 3.9215 62.2023 4.68339 62.1745 5.56629C62.1467 6.44918 62.1328 7.47998 62.1328 8.65867V22.2114C62.1328 23.3901 62.1467 24.4208 62.1745 25.3037C62.2023 26.1866 62.2487 26.9441 62.3043 27.5849C62.3645 28.2258 62.4294 28.7591 62.5082 29.1894C62.587 29.6196 62.6704 29.9827 62.7584 30.274V30.3546H57.5915V30.274C57.6749 29.9827 57.7583 29.6196 57.8371 29.1894C57.9159 28.7591 57.9808 28.2258 58.0317 27.5849C58.0827 26.9441 58.1244 26.1866 58.1615 25.3037C58.1986 24.4208 58.2171 23.3901 58.2171 22.2114V16.0714H58.2125Z" fill="var(--fill-0, white)"/>
<path id="Vector_3" d="M73.4537 22.2158C73.4537 23.3945 73.4723 24.4253 73.5093 25.3082C73.5464 26.1911 73.5881 26.9485 73.6391 27.5894C73.6901 28.2303 73.7549 28.7636 73.8337 29.1939C73.9125 29.6241 73.9959 29.9871 74.0793 30.2784V30.3591H68.9124V30.2784C68.9958 29.9871 69.0792 29.6241 69.158 29.1939C69.2368 28.7636 69.3017 28.2303 69.3526 27.5894C69.4036 26.9485 69.4453 26.1956 69.4824 25.3217C69.5195 24.4477 69.538 23.4125 69.538 22.2203V8.66763C69.538 7.48894 69.5195 6.45815 69.4824 5.57525C69.4453 4.69235 69.4036 3.93494 69.3526 3.29406C69.3017 2.65766 69.2368 2.11985 69.158 1.68064C69.0792 1.24143 68.9958 0.878416 68.9124 0.587104V0.501952L69.816 0.587104C70.0894 0.613995 70.3953 0.631921 70.7289 0.640885C71.0672 0.649848 71.4148 0.649848 71.7716 0.649848C72.3323 0.649848 73.0876 0.582623 74.0423 0.452653C74.9969 0.322683 76.211 0.255458 77.6892 0.255458C79.0655 0.255458 80.3399 0.434726 81.5123 0.797745C82.6801 1.16076 83.6995 1.68512 84.5568 2.37979C85.4188 3.07445 86.0907 3.92598 86.568 4.92988C87.0499 5.93827 87.2909 7.07662 87.2909 8.35391C87.2909 9.35333 87.1565 10.281 86.8924 11.1326C86.6282 11.9841 86.2529 12.7594 85.7709 13.4541C85.289 14.1488 84.7098 14.7628 84.0378 15.2961C83.3659 15.8294 82.6105 16.2776 81.7764 16.6406L89.3345 26.9037C89.7052 27.4191 90.0574 27.8628 90.3771 28.2348C90.7015 28.6112 91.0074 28.9339 91.304 29.2028C91.6005 29.4762 91.8832 29.6958 92.1566 29.8706C92.43 30.0454 92.7081 30.1798 92.9954 30.2784V30.3591H86.7719C86.7302 30.0947 86.5912 29.7451 86.3502 29.3059C86.1139 28.8667 85.8358 28.4365 85.5207 28.0062L77.8978 17.6176C77.5687 17.6445 77.2351 17.6714 76.9061 17.6893C76.5771 17.7117 76.2388 17.7207 75.8959 17.7207C75.4927 17.7207 75.0895 17.7072 74.6818 17.6804C74.274 17.6535 73.8615 17.6042 73.4445 17.5369V22.2203L73.4537 22.2158ZM73.4537 15.9056C73.843 15.9907 74.2369 16.049 74.64 16.0849C75.0432 16.1207 75.4278 16.1386 75.8032 16.1386C76.8783 16.1386 77.8607 15.9818 78.755 15.6681C79.6448 15.3543 80.4001 14.8793 81.0257 14.2429C81.6513 13.6065 82.1332 12.8087 82.4808 11.8586C82.8237 10.9085 82.9952 9.79254 82.9952 8.51525C82.9952 7.4755 82.8747 6.52985 82.6291 5.68281C82.3835 4.83577 82.022 4.11869 81.5401 3.52711C81.0582 2.93552 80.4511 2.47839 79.7189 2.15122C78.9867 1.82406 78.1341 1.66272 77.1563 1.66272C76.1785 1.66272 75.3769 1.71201 74.7883 1.81061C74.1998 1.90921 73.7549 2.01229 73.4537 2.12433V15.9056Z" fill="var(--fill-0, white)"/>
</g>
<defs>
<clipPath id="clip0_0_4">
<rect width="93" height="31" fill="white"/>
</clipPath>
</defs>
</svg>
